HIERARCHY
ROOT Hips
{
	OFFSET 228.634003 92.561920 -263.051910
	CHANNELS 6 Xposition Yposition Zposition Zrotation Yrotation Xrotation 
	JOINT LeftUpLeg
	{
		OFFSET 0.103458 1.857820 10.548502
		CHANNELS 3 Zrotation Yrotation Xrotation
		JOINT LeftLeg
		{
			OFFSET 43.500000 -0.000023 -0.000011
			CHANNELS 3 Zrotation Yrotation Xrotation
			JOINT LeftFoot
			{
				OFFSET 42.372192 0.000038 0.000002
				CHANNELS 3 Zrotation Yrotation Xrotation
				JOINT LeftToe
				{
					OFFSET 17.299992 -0.000004 0.000006
					CHANNELS 3 Zrotation Yrotation Xrotation
					End Site
					{
						OFFSET 0.000000 0.000000 0.000000
					}
				}
			}
		}
	}
	JOINT RightUpLeg
	{
		OFFSET 0.103461 1.857814 -10.548508
		CHANNELS 3 Zrotation Yrotation Xrotation
		JOINT RightLeg
		{
			OFFSET 43.500042 -0.000015 0.000008
			CHANNELS 3 Zrotation Yrotation Xrotation
			JOINT RightFoot
			{
				OFFSET 42.372253 0.000008 0.000006
				CHANNELS 3 Zrotation Yrotation Xrotation
				JOINT RightToe
				{
					OFFSET 17.299973 -0.000014 0.000011
					CHANNELS 3 Zrotation Yrotation Xrotation
					End Site
					{
						OFFSET 0.000000 0.000000 0.000000
					}
				}
			}
		}
	}
	JOINT Spine
	{
		OFFSET 6.901966 -2.603737 -0.000007
		CHANNELS 3 Zrotation Yrotation Xrotation
		JOINT Spine1
		{
			OFFSET 12.588102 0.000017 0.000001
			CHANNELS 3 Zrotation Yrotation Xrotation
			JOINT Spine2
			{
				OFFSET 12.343197 -0.000013 0.000000
				CHANNELS 3 Zrotation Yrotation Xrotation
				JOINT Neck
				{
					OFFSET 25.832905 -0.000008 0.000000
					CHANNELS 3 Zrotation Yrotation Xrotation
					JOINT Head
					{
						OFFSET 11.766610 0.000009 -0.000002
						CHANNELS 3 Zrotation Yrotation Xrotation
						End Site
						{
							OFFSET 0.000000 0.000000 0.000000
						}
					}
				}
				JOINT LeftShoulder
				{
					OFFSET 19.745903 -1.480377 6.000115
					CHANNELS 3 Zrotation Yrotation Xrotation
					JOINT LeftArm
					{
						OFFSET 11.284125 -0.000014 -0.000024
						CHANNELS 3 Zrotation Yrotation Xrotation
						JOINT LeftForeArm
						{
							OFFSET 33.000046 -0.000012 0.000029
							CHANNELS 3 Zrotation Yrotation Xrotation
							JOINT LeftHand
							{
								OFFSET 25.199989 0.000034 0.000012
								CHANNELS 3 Zrotation Yrotation Xrotation
								End Site
								{
									OFFSET 0.000000 0.000000 0.000000
								}
							}
						}
					}
				}
				JOINT RightShoulder
				{
					OFFSET 19.746098 -1.480362 -6.000071
					CHANNELS 3 Zrotation Yrotation Xrotation
					JOINT RightArm
					{
						OFFSET 11.284137 -0.000006 -0.000008
						CHANNELS 3 Zrotation Yrotation Xrotation
						JOINT RightForeArm
						{
							OFFSET 33.000095 0.000017 0.000000
							CHANNELS 3 Zrotation Yrotation Xrotation
							JOINT RightHand
							{
								OFFSET 25.199778 0.000144 0.000423
								CHANNELS 3 Zrotation Yrotation Xrotation
								End Site
								{
									OFFSET 0.000000 0.000000 0.000000
								}
							}
						}
					}
				}
			}
		}
	}
}
MOTION
Frames: 15
Frame Time: 0.033333
-182.658798 90.668358 -515.752197 92.601137 6.266370 89.620804 174.631517 -6.413797 167.481853 -19.434110 -1.386181 -4.399473 70.130463 1.196526 -6.096575 21.454553 0.003087 -0.000000 176.907364 9.506701 175.819875 -23.718373 6.789091 3.145932 81.409626 -1.556899 3.497946 21.454560 -0.003107 -0.000018 8.839212 1.803847 -0.000379 7.671227 3.603691 0.118718 7.352455 3.604478 0.096931 -2.891139 -1.145486 -1.195154 -15.643059 -0.476673 -1.285685 -160.258709 -74.048103 -21.695189 -14.255236 62.400055 24.935255 -28.762852 -13.470871 1.108198 7.955818 2.022737 40.602001 -154.449005 67.886807 27.753214 -6.323931 -52.327070 -17.037577 -41.661511 21.853351 -1.979345 7.573540 4.091913 -11.788976 
-181.198196 90.453423 -515.355286 92.596328 5.537702 89.851501 172.678152 -5.388499 168.819955 -22.340377 -1.078901 -5.176042 72.328759 1.803336 -6.257009 21.454550 0.003082 -0.000003 176.265913 10.859606 176.221954 -24.168889 7.291283 2.713892 81.806337 -1.098477 4.281207 21.454560 -0.003109 -0.000019 8.683768 1.754473 0.086598 7.362468 3.499813 0.284578 7.043724 3.501607 0.263407 -4.594524 -1.695076 -1.331806 -13.753547 -0.710739 -1.484140 -161.174884 -74.097608 -20.755504 -17.208132 62.053279 21.862375 -31.494641 -14.102870 1.201613 7.651033 0.103447 36.741104 -153.311109 68.847112 28.904804 -2.866422 -54.738714 -17.375817 -42.133559 21.809057 -1.989952 7.758939 4.549846 -11.475100 
-179.567398 90.044373 -515.171997 92.264681 4.765117 89.851009 170.091094 -4.883604 171.137356 -26.425452 -1.808762 -6.348729 75.798987 2.807980 -6.291208 21.454553 0.003092 0.000000 175.008735 12.004705 176.259302 -25.362278 7.858466 2.260209 82.352083 -0.606779 5.196273 21.454560 -0.003111 -0.000017 8.609739 1.860841 0.330688 7.222952 3.697364 0.777044 6.904153 3.702136 0.754669 -7.374316 -2.699246 -1.236540 -10.960564 -1.330374 -1.486824 -162.344512 -73.935213 -19.558585 -21.351052 61.629637 18.316467 -34.850050 -14.750833 1.315636 7.816505 -0.711967 33.215261 -153.213574 70.561086 28.960996 2.717748 -56.958406 -18.919183 -43.751286 21.910543 -2.044129 7.655135 3.530813 -11.721674 
-177.625305 89.492432 -515.126282 92.032250 3.978899 89.292518 167.394481 -4.269100 173.377686 -30.960343 -3.305417 -7.378949 80.256068 3.717228 -6.506593 21.454557 0.003104 0.000002 173.106719 13.573900 175.707600 -27.184235 8.709538 1.582825 83.014037 0.027189 6.142993 21.454560 -0.003101 -0.000016 8.637862 2.053522 0.806287 7.298286 4.052155 1.741341 6.979479 4.062734 1.716816 -11.838615 -3.625558 -0.793226 -6.680534 -3.324467 -0.911864 -163.163794 -73.428188 -18.723488 -27.929805 61.204369 13.880877 -37.312371 -15.202809 1.402957 7.154038 -1.874259 29.927614 -154.174117 73.001219 27.912905 10.173921 -58.313607 -22.518895 -45.967194 22.106252 -2.124944 7.302972 1.815713 -11.334470 
-175.370102 88.796097 -515.157288 91.706969 3.105298 88.536812 164.785636 -3.879897 173.355966 -35.607289 -4.528902 -6.969563 83.918839 3.434041 -7.458192 21.454553 0.003102 0.000000 170.938011 15.383203 176.061868 -29.153508 9.284773 0.169875 83.567528 1.183146 7.099028 21.454558 -0.003099 -0.000015 8.661587 2.411182 1.366399 7.376325 4.730524 2.885951 7.057471 4.747973 2.857320 -16.181878 -3.094092 0.160266 -2.853676 -7.366423 0.882537 -164.101292 -73.238493 -17.763097 -36.413381 61.168333 9.683408 -38.207347 -15.132890 1.420548 5.717922 -5.163659 25.622005 -156.787689 75.801405 25.175708 16.410201 -57.841348 -26.307181 -46.427822 22.195588 -2.145403 6.138058 -1.492009 -11.125967 
-172.753906 88.080078 -515.140625 91.342169 2.356499 88.011816 162.921199 -3.632795 171.534341 -39.835750 -5.587300 -5.620634 86.676173 2.507908 -8.392397 21.454557 0.003102 0.000002 169.308751 17.116398 176.668389 -30.427916 9.197552 -1.115190 83.836542 2.396397 8.586700 21.454558 -0.003110 -0.000016 8.711031 2.995189 1.789189 7.515967 5.868045 3.773992 7.196793 5.890849 3.738442 -20.349796 -1.479142 1.241244 -0.236720 -10.608484 2.879847 -166.334190 -73.481702 -15.470112 -44.751987 61.250760 9.648040 -39.550036 -15.952626 1.508150 6.578480 -9.706137 19.161674 -160.080715 78.840607 21.766681 18.303789 -55.437722 -28.231725 -44.264147 21.869477 -2.056807 5.564433 -6.389419 -8.814687 
-169.909103 87.324463 -515.080322 91.018022 1.773433 87.849401 161.644555 -3.405191 168.675633 -44.080436 -6.031213 -3.491713 89.329551 1.037464 -9.508153 21.454553 0.003103 -0.000002 168.251847 18.824111 176.089599 -30.935645 9.320564 -1.465148 83.969936 3.053083 10.538440 21.454562 -0.003093 -0.000016 8.778704 3.601496 1.886532 7.683493 7.069996 4.015816 7.363599 7.094240 3.972932 -23.940336 2.545578 1.650948 0.637137 -12.804838 5.110001 -171.010602 -74.717427 -10.675203 -50.983220 60.710731 13.645402 -42.977995 -17.270736 1.687535 9.963708 -14.052682 12.379191 -169.500693 79.821190 12.183406 14.220353 -49.434758 -26.549464 -39.987298 20.140286 -1.820411 5.905035 -11.794160 -5.344244 
-166.853607 86.452026 -514.966980 90.652463 1.170286 88.357513 160.448192 -2.943106 167.026990 -48.801111 -6.329639 -1.366047 91.337224 -0.382876 -10.282729 21.454557 0.003100 0.000003 167.644534 20.399198 175.612660 -31.090570 9.005808 -1.352622 84.218118 3.480009 13.002382 21.454560 -0.003114 -0.000018 8.801388 4.302057 1.609148 7.741821 8.487017 3.512576 7.420534 8.508208 3.460974 -27.467314 7.860150 1.307142 1.657971 -14.359940 7.217194 -179.410409 -76.049280 -2.096094 -52.478573 60.241046 15.276070 -49.906519 -17.049727 1.883861 9.338163 -13.458414 16.942742 178.667380 79.825036 0.164982 7.577790 -41.342411 -26.114026 -34.158008 17.547576 -1.507173 6.197956 -15.086730 -0.640772 
-163.533401 85.347588 -514.869812 90.731051 0.444148 88.502115 159.099776 -2.315192 165.582787 -54.372838 -6.676422 0.212812 93.054258 -1.347621 -10.540307 21.454550 0.003088 -0.000003 166.406959 22.682693 174.172078 -31.676990 9.149616 -1.205736 84.713539 3.815188 15.412185 21.454558 -0.003107 -0.000018 8.801806 4.896126 1.284383 7.742030 9.695514 2.904703 7.419359 9.713010 2.845610 -29.886490 12.264929 0.682697 1.901488 -14.998633 8.790510 176.160032 -77.069300 2.404668 -51.222792 58.771483 16.190868 -59.288836 -14.711334 2.052446 5.594865 -9.925278 29.058565 170.494458 78.677885 -8.168547 0.171852 -32.988758 -27.142099 -28.080996 14.781994 -1.205918 9.128879 -13.963337 1.989939 
-160.052795 83.901299 -514.890381 91.125010 -0.325667 87.363324 157.832230 -2.534096 163.384518 -61.036169 -6.819215 0.389206 94.355566 -1.440258 -11.374808 21.454557 0.003103 0.000001 163.622605 25.173101 172.548815 -33.510158 8.720893 -1.983040 85.492501 4.757941 17.737675 21.454558 -0.003114 -0.000018 8.901774 5.299183 1.152799 7.947729 10.506813 2.679372 7.624106 10.522929 2.615229 -30.506743 13.842618 0.605983 1.420706 -14.339487 9.421998 172.803977 -77.843523 5.804018 -48.291732 56.727904 18.032201 -67.788098 -12.515403 2.229845 -3.604915 -7.706169 40.021456 165.319811 77.920519 -13.456992 -7.464955 -27.743089 -25.991108 -23.117713 13.092162 -1.017801 14.159716 -7.589382 -2.986473 
-156.490204 82.010902 -514.920471 91.812270 -0.786977 85.485193 156.621866 -3.293710 161.867970 -68.754064 -6.495676 -0.840502 94.718557 -0.466564 -10.631475 21.454553 0.003086 -0.000003 159.708196 27.357406 170.066110 -36.624653 7.360723 -2.999769 86.808296 5.880505 20.579731 21.454555 -0.003109 -0.000016 9.165959 5.422865 1.142024 8.483497 10.747511 2.692078 8.159593 10.763687 2.626433 -29.879602 14.304279 0.887991 1.082233 -14.117269 9.817528 168.592414 -78.789217 10.058306 -45.567556 54.771273 19.889243 -72.912659 -10.967803 2.332245 -14.466942 -12.107437 47.728317 160.162103 77.693293 -18.710992 -13.508642 -27.014001 -19.522347 -23.452272 14.147998 -1.089958 19.797401 4.353798 -14.659478 
-152.969101 79.674820 -514.980225 92.760068 -0.973728 83.989689 155.316917 -4.210597 162.270364 -76.954396 -5.366601 -3.290182 95.040177 1.295631 -9.949586 21.454539 0.003083 -0.000003 155.273791 29.515389 166.375963 -40.650817 6.107071 -3.655754 88.423021 6.670678 23.693166 21.454558 -0.003105 -0.000016 9.472438 5.284412 1.108011 9.091353 10.465463 2.640660 8.767765 10.481356 2.576767 -27.857715 14.050130 1.458547 0.520022 -14.028992 10.060687 166.995953 -78.919421 11.675754 -43.379163 52.914729 21.881812 -73.454327 -10.859659 2.347305 -22.626407 -18.934290 48.859270 156.437533 77.143886 -22.524038 -18.550323 -28.180001 -11.764061 -27.142408 15.586237 -1.240602 18.546986 16.163144 -17.519148 
-149.551605 77.086243 -514.942322 93.617332 -0.656131 83.649286 154.242952 -5.379805 164.029069 -84.850969 -2.589494 -8.687406 95.010356 4.983139 -9.040764 21.454550 0.003078 0.000002 151.932558 31.963103 163.595229 -44.469227 4.784442 -4.363296 89.928299 7.442602 26.813668 21.454558 -0.003097 -0.000016 9.811358 5.063436 0.938888 9.749056 10.029693 2.311818 9.425861 10.043614 2.250633 -25.044487 12.826599 2.144115 0.234938 -13.819709 9.890255 167.582325 -78.380478 11.099358 -41.012076 51.901170 22.291063 -70.736246 -11.694380 2.292691 -23.790186 -21.837262 45.141898 154.905603 76.611397 -24.109507 -23.087617 -30.328301 -6.030535 -33.607649 16.899797 -1.453126 15.376873 23.781276 -10.846397 
-146.170502 74.344162 -514.905823 93.612175 -0.450568 84.662421 152.704752 -7.650101 167.855533 -91.506845 0.886548 -14.866812 95.020110 9.187105 -7.376305 21.454555 0.003098 -0.000004 150.358077 34.198703 161.274345 -46.953142 4.232677 -4.341039 91.212641 7.699086 30.338481 21.454557 -0.003128 -0.000017 10.156607 4.946045 0.779050 10.425069 9.801672 2.009953 10.102061 9.813747 1.950202 -22.807016 12.362749 2.186170 -0.340791 -14.347950 9.704329 167.830097 -77.902399 10.864705 -39.486737 51.612645 20.804985 -67.078311 -13.113879 2.242671 -16.617072 -20.100811 42.082995 155.886596 76.008599 -23.143292 -27.192276 -33.058700 -1.486208 -42.965513 17.927664 -1.758658 14.503297 23.865335 -1.285343 
-142.484207 71.382736 -515.070312 93.158043 -0.715758 86.549903 149.694155 -10.237705 175.140530 -96.422621 2.813557 -17.971389 95.441976 11.281871 -6.514940 21.454551 0.003089 0.000001 149.788398 36.795896 159.550583 -48.001613 4.148084 -4.012181 92.288533 7.774477 34.333889 21.454558 -0.003105 -0.000020 10.453379 4.883059 0.759315 11.017706 9.671451 1.989446 10.694818 9.683410 1.930483 -21.225118 11.624205 1.976484 -0.805538 -14.058352 9.074530 166.343602 -77.748419 12.382715 -38.942064 50.899724 18.542316 -63.608111 -14.032489 2.169391 -5.282016 -15.440860 37.547104 157.890409 75.412515 -21.132923 -31.114244 -36.034504 2.485498 -52.295159 18.745236 -2.107358 11.896298 18.023010 2.734019 
